<mxfile host="app.diagrams.net" modified="2023-02-28T02:06:26.012Z" agent="5.0 (Windows NT 10.0; Win64; x64) AppleWebKit/537.36 (KHTML, like Gecko) Chrome/110.0.0.0 Safari/537.36" etag="j9gV7RA7OOOAya4LbzEb" version="20.8.1" type="github">
  <diagram id="Bg48A0k44U06H9qpWVli" name="Page-1">
    <mxGraphModel dx="1050" dy="1746" grid="1" gridSize="10" guides="1" tooltips="1" connect="1" arrows="1" fold="1" page="1" pageScale="1" pageWidth="827" pageHeight="1169" math="0" shadow="0">
      <root>
        <mxCell id="0" />
        <mxCell id="1" parent="0" />
        <mxCell id="nh4RLfR8Q7sDI_pOKqrS-4" style="edgeStyle=orthogonalEdgeStyle;rounded=0;orthogonalLoop=1;jettySize=auto;html=1;exitX=1;exitY=0.5;exitDx=0;exitDy=0;exitPerimeter=0;entryX=0.503;entryY=1.02;entryDx=0;entryDy=0;entryPerimeter=0;" parent="1" source="nh4RLfR8Q7sDI_pOKqrS-1" target="nh4RLfR8Q7sDI_pOKqrS-14" edge="1">
          <mxGeometry relative="1" as="geometry">
            <mxPoint x="470" y="140" as="targetPoint" />
            <Array as="points">
              <mxPoint x="90" y="180" />
              <mxPoint x="90" y="190" />
              <mxPoint x="290" y="190" />
              <mxPoint x="290" y="110" />
              <mxPoint x="484" y="110" />
            </Array>
          </mxGeometry>
        </mxCell>
        <mxCell id="nh4RLfR8Q7sDI_pOKqrS-21" style="edgeStyle=orthogonalEdgeStyle;rounded=0;orthogonalLoop=1;jettySize=auto;html=1;exitX=1;exitY=0.5;exitDx=0;exitDy=0;exitPerimeter=0;entryX=0;entryY=0.5;entryDx=0;entryDy=0;" parent="1" source="nh4RLfR8Q7sDI_pOKqrS-1" target="nh4RLfR8Q7sDI_pOKqrS-17" edge="1">
          <mxGeometry relative="1" as="geometry" />
        </mxCell>
        <mxCell id="nh4RLfR8Q7sDI_pOKqrS-42" style="edgeStyle=orthogonalEdgeStyle;rounded=0;orthogonalLoop=1;jettySize=auto;html=1;exitX=0.5;exitY=1;exitDx=0;exitDy=0;exitPerimeter=0;entryX=1.01;entryY=0.527;entryDx=0;entryDy=0;entryPerimeter=0;fontColor=#FFFFFF;" parent="1" source="nh4RLfR8Q7sDI_pOKqrS-1" target="nh4RLfR8Q7sDI_pOKqrS-36" edge="1">
          <mxGeometry relative="1" as="geometry">
            <Array as="points">
              <mxPoint x="70" y="180" />
              <mxPoint x="390" y="180" />
              <mxPoint x="390" y="362" />
            </Array>
          </mxGeometry>
        </mxCell>
        <mxCell id="nh4RLfR8Q7sDI_pOKqrS-43" value="&lt;font color=&quot;#000000&quot; style=&quot;font-size: 24px;&quot;&gt;&lt;b&gt;CDC&lt;/b&gt;&lt;/font&gt;" style="edgeLabel;html=1;align=center;verticalAlign=middle;resizable=0;points=[];fontColor=#FFFFFF;" parent="nh4RLfR8Q7sDI_pOKqrS-42" vertex="1" connectable="0">
          <mxGeometry x="0.254" y="-1" relative="1" as="geometry">
            <mxPoint as="offset" />
          </mxGeometry>
        </mxCell>
        <mxCell id="nh4RLfR8Q7sDI_pOKqrS-1" value="SED" style="shape=cylinder3;whiteSpace=wrap;html=1;boundedLbl=1;backgroundOutline=1;size=15;fontColor=#FFFFFF;fillColor=#3333FF;" parent="1" vertex="1">
          <mxGeometry x="40" y="140" width="60" height="80" as="geometry" />
        </mxCell>
        <mxCell id="nh4RLfR8Q7sDI_pOKqrS-37" style="edgeStyle=orthogonalEdgeStyle;rounded=0;orthogonalLoop=1;jettySize=auto;html=1;exitX=1;exitY=0.5;exitDx=0;exitDy=0;exitPerimeter=0;entryX=0.012;entryY=0.597;entryDx=0;entryDy=0;entryPerimeter=0;fontColor=#FFFFFF;" parent="1" source="nh4RLfR8Q7sDI_pOKqrS-2" target="nh4RLfR8Q7sDI_pOKqrS-36" edge="1">
          <mxGeometry relative="1" as="geometry" />
        </mxCell>
        <mxCell id="nh4RLfR8Q7sDI_pOKqrS-2" value="Banco Login Servico" style="shape=cylinder3;whiteSpace=wrap;html=1;boundedLbl=1;backgroundOutline=1;size=15;fillColor=#3fa11b;fontColor=#FFFFFF;" parent="1" vertex="1">
          <mxGeometry x="40" y="290" width="60" height="80" as="geometry" />
        </mxCell>
        <mxCell id="nh4RLfR8Q7sDI_pOKqrS-11" value="TB_ALUNO" style="swimlane;fontStyle=0;childLayout=stackLayout;horizontal=1;startSize=30;horizontalStack=0;resizeParent=1;resizeParentMax=0;resizeLast=0;collapsible=1;marginBottom=0;whiteSpace=wrap;html=1;fillColor=#007FFF;strokeColor=#007FFF;fontColor=#FFFFFF;" parent="1" vertex="1">
          <mxGeometry x="414" y="-20" width="140" height="120" as="geometry" />
        </mxCell>
        <mxCell id="nh4RLfR8Q7sDI_pOKqrS-12" value="NM_LOGIN" style="text;strokeColor=none;fillColor=none;align=left;verticalAlign=middle;spacingLeft=4;spacingRight=4;overflow=hidden;points=[[0,0.5],[1,0.5]];portConstraint=eastwest;rotatable=0;whiteSpace=wrap;html=1;" parent="nh4RLfR8Q7sDI_pOKqrS-11" vertex="1">
          <mxGeometry y="30" width="140" height="30" as="geometry" />
        </mxCell>
        <mxCell id="nh4RLfR8Q7sDI_pOKqrS-13" value="NM_SENHA" style="text;strokeColor=none;fillColor=none;align=left;verticalAlign=middle;spacingLeft=4;spacingRight=4;overflow=hidden;points=[[0,0.5],[1,0.5]];portConstraint=eastwest;rotatable=0;whiteSpace=wrap;html=1;" parent="nh4RLfR8Q7sDI_pOKqrS-11" vertex="1">
          <mxGeometry y="60" width="140" height="30" as="geometry" />
        </mxCell>
        <mxCell id="nh4RLfR8Q7sDI_pOKqrS-14" value="DT_NASCIMENTO" style="text;strokeColor=none;fillColor=none;align=left;verticalAlign=middle;spacingLeft=4;spacingRight=4;overflow=hidden;points=[[0,0.5],[1,0.5]];portConstraint=eastwest;rotatable=0;whiteSpace=wrap;html=1;" parent="nh4RLfR8Q7sDI_pOKqrS-11" vertex="1">
          <mxGeometry y="90" width="140" height="30" as="geometry" />
        </mxCell>
        <mxCell id="nh4RLfR8Q7sDI_pOKqrS-16" value="DESENV_USER_FW" style="swimlane;fontStyle=0;childLayout=stackLayout;horizontal=1;startSize=30;horizontalStack=0;resizeParent=1;resizeParentMax=0;resizeLast=0;collapsible=1;marginBottom=0;whiteSpace=wrap;html=1;fontColor=#FFFFFF;strokeColor=#007FFF;fillColor=#007FFF;" parent="1" vertex="1">
          <mxGeometry x="490" y="200" width="140" height="90" as="geometry" />
        </mxCell>
        <mxCell id="nh4RLfR8Q7sDI_pOKqrS-17" value="LOGIN&lt;span style=&quot;white-space: pre;&quot;&gt;	&lt;/span&gt;" style="text;strokeColor=none;fillColor=none;align=left;verticalAlign=middle;spacingLeft=4;spacingRight=4;overflow=hidden;points=[[0,0.5],[1,0.5]];portConstraint=eastwest;rotatable=0;whiteSpace=wrap;html=1;" parent="nh4RLfR8Q7sDI_pOKqrS-16" vertex="1">
          <mxGeometry y="30" width="140" height="30" as="geometry" />
        </mxCell>
        <mxCell id="nh4RLfR8Q7sDI_pOKqrS-18" value="NM_SENHA" style="text;strokeColor=none;fillColor=none;align=left;verticalAlign=middle;spacingLeft=4;spacingRight=4;overflow=hidden;points=[[0,0.5],[1,0.5]];portConstraint=eastwest;rotatable=0;whiteSpace=wrap;html=1;" parent="nh4RLfR8Q7sDI_pOKqrS-16" vertex="1">
          <mxGeometry y="60" width="140" height="30" as="geometry" />
        </mxCell>
        <mxCell id="nh4RLfR8Q7sDI_pOKqrS-22" value="HASH HUFFMAN" style="ellipse;shape=cloud;whiteSpace=wrap;html=1;fillColor=#FF0000;strokeColor=#6c8ebf;fontColor=#FFFFFF;" parent="1" vertex="1">
          <mxGeometry x="600" y="20" width="140" height="110" as="geometry" />
        </mxCell>
        <mxCell id="nh4RLfR8Q7sDI_pOKqrS-23" style="edgeStyle=orthogonalEdgeStyle;rounded=0;orthogonalLoop=1;jettySize=auto;html=1;exitX=1;exitY=0.5;exitDx=0;exitDy=0;" parent="1" source="nh4RLfR8Q7sDI_pOKqrS-18" target="nh4RLfR8Q7sDI_pOKqrS-22" edge="1">
          <mxGeometry relative="1" as="geometry" />
        </mxCell>
        <mxCell id="nh4RLfR8Q7sDI_pOKqrS-24" style="edgeStyle=orthogonalEdgeStyle;rounded=0;orthogonalLoop=1;jettySize=auto;html=1;exitX=1;exitY=0.5;exitDx=0;exitDy=0;" parent="1" source="nh4RLfR8Q7sDI_pOKqrS-13" target="nh4RLfR8Q7sDI_pOKqrS-22" edge="1">
          <mxGeometry relative="1" as="geometry" />
        </mxCell>
        <mxCell id="nh4RLfR8Q7sDI_pOKqrS-26" value="COFNJKEBPGMHIDAL&#xa;PJNODMBFLCHGIEAK&#xa;FHMIAOCJBPEGNDLK&#xa;GJKFEMIBOCAHDPNL" style="text;whiteSpace=wrap;html=1;" parent="1" vertex="1">
          <mxGeometry x="680" y="140" width="110" height="80" as="geometry" />
        </mxCell>
        <mxCell id="nh4RLfR8Q7sDI_pOKqrS-36" value="" style="aspect=fixed;html=1;points=[];align=center;image;fontSize=12;image=img/lib/azure2/databases/Data_Factory.svg;strokeColor=#007FFF;fontColor=#FFFFFF;fillColor=#3fa11b;" parent="1" vertex="1">
          <mxGeometry x="350" y="320" width="80" height="80" as="geometry" />
        </mxCell>
        <mxCell id="nh4RLfR8Q7sDI_pOKqrS-40" value="" style="shape=waypoint;sketch=0;size=6;pointerEvents=1;points=[];fillColor=#3fa11b;resizable=0;rotatable=0;perimeter=centerPerimeter;snapToPoint=1;verticalAlign=top;strokeColor=#007FFF;fontColor=#FFFFFF;labelBackgroundColor=default;" parent="1" vertex="1">
          <mxGeometry x="540" y="280" width="20" height="20" as="geometry" />
        </mxCell>
      </root>
    </mxGraphModel>
  </diagram>
</mxfile>
